<svg xmlns="http://www.w3.org/2000/svg" xmlns:xlink="http://www.w3.org/1999/xlink" width="1920" zoomAndPan="magnify" viewBox="0 0 1440 809.999993" height="1080" preserveAspectRatio="xMidYMid meet" version="1.0"><defs><clipPath id="97b43f7015"><path d="M 731 157.261719 L 1028 157.261719 L 1028 693.511719 L 731 693.511719 Z M 731 157.261719 " clip-rule="nonzero"/></clipPath><clipPath id="a68a77c05d"><path d="M 28.210938 157.261719 L 325 157.261719 L 325 693.511719 L 28.210938 693.511719 Z M 28.210938 157.261719 " clip-rule="nonzero"/></clipPath><clipPath id="ee7170f193"><path d="M 1115 157.261719 L 1411.960938 157.261719 L 1411.960938 693.511719 L 1115 693.511719 Z M 1115 157.261719 " clip-rule="nonzero"/></clipPath><clipPath id="a5f3ff26b5"><path d="M 933 260 L 1220 260 L 1220 693.511719 L 933 693.511719 Z M 933 260 " clip-rule="nonzero"/></clipPath><clipPath id="2f7483c7f7"><path d="M 484 188 L 776 188 L 776 693.511719 L 484 693.511719 Z M 484 188 " clip-rule="nonzero"/></clipPath><clipPath id="49fde61822"><path d="M 246 261 L 533 261 L 533 693.511719 L 246 693.511719 Z M 246 261 " clip-rule="nonzero"/></clipPath></defs><g clip-path="url(#97b43f7015)"><path fill="#5ce1e6" d="M 911.304688 693.195312 C 909.589844 663.5 908.925781 615.253906 908.59375 585.503906 C 908.261719 556 908.261719 526.5 911.414062 497.105469 C 912.660156 485.382812 913.875 472.75 921.5625 463.238281 C 923.828125 460.222656 926.898438 457.957031 928.972656 454.804688 C 930.6875 452.175781 932.066406 449.21875 933.867188 446.8125 C 944.011719 433.210938 953.800781 419.578125 964.222656 406.113281 C 976.335938 388.527344 989.386719 371.632812 1001.359375 353.9375 C 1007.605469 344.675781 1014.132812 335.636719 1020.242188 326.289062 C 1022.703125 322.5 1025.632812 318.714844 1027.015625 314.371094 C 1032.242188 297.894531 1000.140625 297.367188 980.425781 315.0625 C 973.625 321.449219 963.617188 335.414062 957.175781 345.367188 C 950.675781 354.296875 948.6875 363.726562 937.265625 352.085938 C 932.125 345.339844 928.722656 338.457031 928.253906 329.882812 C 927.230469 310.695312 930.214844 289.792969 932.730469 270.796875 C 935.46875 249.976562 939.726562 229.488281 943.679688 208.890625 C 945.476562 199.433594 948.492188 181.378906 935.164062 178.945312 C 921.203125 176.402344 917.21875 207.175781 915.089844 215.359375 C 911.582031 228.910156 908.925781 242.679688 905.359375 256.199219 C 901.792969 269.71875 897.617188 283.101562 893.164062 296.371094 C 890.207031 305.191406 885.894531 292.503906 884.980469 288.050781 C 883.875 282.742188 877.710938 248.429688 874.804688 227.914062 C 872.566406 212.207031 871.265625 196.335938 868.640625 180.6875 C 867.3125 172.78125 865.957031 157.378906 854.898438 157.65625 C 839.195312 158.042969 841.875 183.039062 841.765625 192.992188 C 841.488281 216.660156 843.757812 240.328125 845.167969 263.941406 C 845.664062 273.644531 846.328125 283.324219 847.210938 292.972656 C 847.488281 295.902344 848.679688 312.132812 844.117188 301.820312 C 839.359375 291.121094 834.992188 280.085938 830.679688 269.222656 C 826.003906 257.414062 820.171875 246.105469 815.554688 234.300781 C 812.152344 225.589844 809.441406 216.660156 805.628906 208.117188 C 802.945312 202.0625 798.882812 194.265625 791.773438 192.660156 C 785.527344 191.277344 779.996094 194.789062 778.972656 200.789062 C 778.476562 203.582031 779.113281 212.207031 782.238281 224.179688 C 785.71875 237.535156 790.171875 250.613281 794.292969 263.800781 C 798.273438 276.546875 801.371094 289.40625 804.578125 302.34375 C 805.046875 304.253906 809.773438 319.902344 804.605469 317.636719 C 802.449219 316.695312 800.265625 314.898438 798.496094 313.351562 C 794.097656 309.449219 790.003906 305.222656 785.996094 300.933594 C 779.71875 294.273438 773.664062 287.414062 767.75 280.445312 C 762.410156 274.171875 757.296875 267.921875 750.714844 262.890625 C 746.816406 259.929688 741.34375 255.726562 736.199219 257.96875 C 731.417969 260.042969 731.363281 265.15625 732.6875 269.527344 C 734.457031 275.386719 737.664062 280.890625 740.816406 286.085938 C 746.957031 296.261719 753.980469 305.910156 761.113281 315.421875 C 771.535156 329.277344 779.25 338.871094 790.308594 364.527344 C 793.101562 374.09375 799.847656 414.765625 802.226562 424.417969 C 803.914062 430.914062 804.824219 437.578125 807.148438 443.882812 C 813.257812 462.710938 817.933594 457.679688 818.679688 488.839844 C 817.988281 506.703125 817.40625 524.5625 816.4375 542.398438 C 814.78125 573.03125 814.476562 603.722656 813.011719 634.386719 C 812.097656 653.742188 811.378906 673.675781 809.027344 693.25 L 911.304688 693.25 Z M 911.304688 693.195312 " fill-opacity="1" fill-rule="nonzero"/></g><g clip-path="url(#a68a77c05d)"><path fill="#38b6ff" d="M 208.152344 693.195312 C 206.4375 663.5 205.773438 615.253906 205.441406 585.503906 C 205.113281 556 205.113281 526.5 208.261719 497.105469 C 209.507812 485.382812 210.722656 472.75 218.410156 463.238281 C 220.679688 460.222656 223.746094 457.957031 225.820312 454.804688 C 227.535156 452.175781 228.917969 449.21875 230.714844 446.8125 C 240.863281 433.210938 250.648438 419.578125 261.074219 406.113281 C 273.183594 388.527344 286.234375 371.632812 298.207031 353.9375 C 304.457031 344.675781 310.980469 335.636719 317.089844 326.289062 C 319.550781 322.5 322.484375 318.714844 323.867188 314.371094 C 329.089844 297.894531 296.988281 297.367188 277.277344 315.0625 C 270.472656 321.449219 260.464844 335.414062 254.023438 345.367188 C 247.527344 354.296875 245.535156 363.726562 234.117188 352.085938 C 228.972656 345.339844 225.570312 338.457031 225.101562 329.882812 C 224.078125 310.695312 227.066406 289.792969 229.582031 270.796875 C 232.320312 249.976562 236.578125 229.488281 240.53125 208.890625 C 242.328125 199.433594 245.339844 181.378906 232.015625 178.945312 C 218.050781 176.402344 214.070312 207.175781 211.941406 215.359375 C 208.429688 228.910156 205.773438 242.679688 202.207031 256.199219 C 198.640625 269.71875 194.464844 283.101562 190.015625 296.371094 C 187.054688 305.191406 182.742188 292.503906 181.832031 288.050781 C 180.726562 282.742188 174.558594 248.429688 171.65625 227.914062 C 169.417969 212.207031 168.117188 196.335938 165.488281 180.6875 C 164.164062 172.78125 162.808594 157.378906 151.75 157.65625 C 136.042969 158.042969 138.726562 183.039062 138.613281 192.992188 C 138.339844 216.660156 140.605469 240.328125 142.015625 263.941406 C 142.511719 273.644531 143.175781 283.324219 144.0625 292.972656 C 144.339844 295.902344 145.527344 312.132812 140.964844 301.820312 C 136.210938 291.121094 131.839844 280.085938 127.527344 269.222656 C 122.855469 257.414062 117.019531 246.105469 112.402344 234.300781 C 109.003906 225.589844 106.292969 216.660156 102.476562 208.117188 C 99.796875 202.0625 95.730469 194.265625 88.625 192.660156 C 82.375 191.277344 76.847656 194.789062 75.824219 200.789062 C 75.324219 203.582031 75.960938 212.207031 79.085938 224.179688 C 82.570312 237.535156 87.019531 250.613281 91.140625 263.800781 C 95.121094 276.546875 98.21875 289.40625 101.425781 302.34375 C 101.894531 304.253906 106.625 319.902344 101.453125 317.636719 C 99.296875 316.695312 97.113281 314.898438 95.34375 313.351562 C 90.945312 309.449219 86.855469 305.222656 82.847656 300.933594 C 76.570312 294.273438 70.515625 287.414062 64.597656 280.445312 C 59.261719 274.171875 54.144531 267.921875 47.566406 262.890625 C 43.667969 259.929688 38.191406 255.726562 33.050781 257.96875 C 28.265625 260.042969 28.210938 265.15625 29.539062 269.527344 C 31.308594 275.386719 34.515625 280.890625 37.667969 286.085938 C 43.804688 296.261719 50.828125 305.910156 57.960938 315.421875 C 68.386719 329.277344 76.097656 338.871094 87.160156 364.527344 C 89.953125 374.09375 96.699219 414.765625 99.074219 424.417969 C 100.761719 430.914062 101.675781 437.578125 103.996094 443.882812 C 110.109375 462.710938 114.78125 457.679688 115.527344 488.839844 C 114.835938 506.703125 114.253906 524.5625 113.289062 542.398438 C 111.628906 573.03125 111.324219 603.722656 109.859375 634.386719 C 108.945312 653.742188 108.226562 673.675781 105.878906 693.25 L 208.152344 693.25 Z M 208.152344 693.195312 " fill-opacity="1" fill-rule="nonzero"/></g><g clip-path="url(#ee7170f193)"><path fill="#38b6ff" d="M 1231.84375 693.195312 C 1233.558594 663.5 1234.21875 615.253906 1234.550781 585.503906 C 1234.882812 556 1234.882812 526.5 1231.730469 497.105469 C 1230.488281 485.382812 1229.269531 472.75 1221.585938 463.238281 C 1219.316406 460.222656 1216.25 457.957031 1214.175781 454.804688 C 1212.460938 452.175781 1211.078125 449.21875 1209.28125 446.8125 C 1199.132812 433.210938 1189.34375 419.578125 1178.921875 406.113281 C 1166.8125 388.527344 1153.761719 371.632812 1141.789062 353.9375 C 1135.539062 344.675781 1129.015625 335.636719 1122.902344 326.289062 C 1120.445312 322.5 1117.511719 318.714844 1116.128906 314.371094 C 1110.90625 297.894531 1143.003906 297.367188 1162.71875 315.0625 C 1169.519531 321.449219 1179.53125 335.414062 1185.972656 345.367188 C 1192.46875 354.296875 1194.460938 363.726562 1205.878906 352.085938 C 1211.023438 345.339844 1214.421875 338.457031 1214.894531 329.882812 C 1215.917969 310.695312 1212.929688 289.792969 1210.414062 270.796875 C 1207.675781 249.976562 1203.417969 229.488281 1199.464844 208.890625 C 1197.667969 199.433594 1194.65625 181.378906 1207.980469 178.945312 C 1221.945312 176.402344 1225.925781 207.175781 1228.054688 215.359375 C 1231.566406 228.910156 1234.21875 242.679688 1237.789062 256.199219 C 1241.355469 269.71875 1245.527344 283.101562 1249.980469 296.371094 C 1252.9375 305.191406 1257.253906 292.503906 1258.164062 288.050781 C 1259.269531 282.742188 1265.4375 248.429688 1268.339844 227.914062 C 1270.578125 212.207031 1271.878906 196.335938 1274.503906 180.6875 C 1275.832031 172.78125 1277.1875 157.378906 1288.246094 157.65625 C 1303.953125 158.042969 1301.269531 183.039062 1301.378906 192.992188 C 1301.65625 216.660156 1299.390625 240.328125 1297.980469 263.941406 C 1297.480469 273.644531 1296.820312 283.324219 1295.933594 292.972656 C 1295.65625 295.902344 1294.46875 312.132812 1299.03125 301.820312 C 1303.785156 291.121094 1308.15625 280.085938 1312.46875 269.222656 C 1317.140625 257.414062 1322.976562 246.105469 1327.59375 234.300781 C 1330.992188 225.589844 1333.703125 216.660156 1337.519531 208.117188 C 1340.199219 202.0625 1344.265625 194.265625 1351.371094 192.660156 C 1357.621094 191.277344 1363.148438 194.789062 1364.171875 200.789062 C 1364.671875 203.582031 1364.035156 212.207031 1360.910156 224.179688 C 1357.425781 237.535156 1352.976562 250.613281 1348.855469 263.800781 C 1344.875 276.546875 1341.777344 289.40625 1338.570312 302.34375 C 1338.097656 304.253906 1333.371094 319.902344 1338.542969 317.636719 C 1340.699219 316.695312 1342.882812 314.898438 1344.652344 313.351562 C 1349.046875 309.449219 1353.140625 305.222656 1357.148438 300.933594 C 1363.425781 294.273438 1369.480469 287.414062 1375.398438 280.445312 C 1380.734375 274.171875 1385.851562 267.921875 1392.429688 262.890625 C 1396.328125 259.929688 1401.804688 255.726562 1406.945312 257.96875 C 1411.730469 260.042969 1411.785156 265.15625 1410.457031 269.527344 C 1408.6875 275.386719 1405.480469 280.890625 1402.328125 286.085938 C 1396.191406 296.261719 1389.167969 305.910156 1382.035156 315.421875 C 1371.609375 329.277344 1363.894531 338.871094 1352.835938 364.527344 C 1350.042969 374.09375 1343.296875 414.765625 1340.917969 424.417969 C 1339.234375 430.914062 1338.320312 437.578125 1336 443.882812 C 1329.886719 462.710938 1325.214844 457.679688 1324.46875 488.839844 C 1325.160156 506.703125 1325.738281 524.5625 1326.707031 542.398438 C 1328.367188 573.03125 1328.671875 603.722656 1330.136719 634.386719 C 1331.046875 653.742188 1331.769531 673.675781 1334.117188 693.25 L 1231.84375 693.25 Z M 1231.84375 693.195312 " fill-opacity="1" fill-rule="nonzero"/></g><g clip-path="url(#a5f3ff26b5)"><path fill="#0cc0df" d="M 1140.128906 693.195312 C 1139.492188 673.289062 1138.996094 653.355469 1137.917969 633.472656 C 1136.976562 616.164062 1136.425781 598.828125 1135.761719 581.492188 C 1136.480469 551.273438 1141.015625 556.140625 1146.960938 537.890625 C 1149.226562 531.808594 1150.109375 525.335938 1151.742188 519.003906 C 1154.066406 509.632812 1160.589844 470.175781 1163.328125 460.886719 C 1174.054688 435.972656 1181.519531 426.683594 1191.640625 413.246094 C 1198.582031 404.039062 1205.382812 394.667969 1211.355469 384.796875 C 1214.421875 379.734375 1217.519531 374.398438 1219.234375 368.703125 C 1220.507812 364.472656 1220.449219 359.523438 1215.804688 357.503906 C 1210.828125 355.347656 1205.492188 359.414062 1201.734375 362.289062 C 1195.34375 367.183594 1190.367188 373.238281 1185.199219 379.320312 C 1179.449219 386.09375 1173.558594 392.730469 1167.476562 399.199219 C 1163.578125 403.347656 1159.621094 407.46875 1155.363281 411.257812 C 1153.648438 412.777344 1151.550781 414.519531 1149.449219 415.429688 C 1144.441406 417.617188 1149.003906 402.464844 1149.476562 400.609375 C 1152.601562 388.058594 1155.585938 375.5625 1159.457031 363.203125 C 1163.4375 350.425781 1167.777344 337.738281 1171.152344 324.769531 C 1174.167969 313.15625 1174.773438 304.804688 1174.304688 302.097656 C 1173.28125 296.261719 1167.945312 292.863281 1161.863281 294.214844 C 1154.949219 295.765625 1151.023438 303.3125 1148.398438 309.203125 C 1144.71875 317.496094 1142.066406 326.179688 1138.773438 334.613281 C 1134.296875 346.058594 1128.65625 357.035156 1124.121094 368.484375 C 1119.945312 379.042969 1115.6875 389.746094 1111.097656 400.113281 C 1106.675781 410.09375 1107.835938 394.363281 1108.085938 391.515625 C 1108.941406 382.140625 1109.578125 372.742188 1110.046875 363.339844 C 1111.429688 340.445312 1113.613281 317.46875 1113.367188 294.492188 C 1113.253906 284.84375 1115.855469 260.59375 1100.617188 260.207031 C 1089.890625 259.929688 1088.5625 274.863281 1087.292969 282.546875 C 1084.777344 297.753906 1083.503906 313.128906 1081.320312 328.363281 C 1078.472656 348.269531 1072.5 381.5625 1071.421875 386.703125 C 1070.535156 391.015625 1066.363281 403.347656 1063.484375 394.777344 C 1059.144531 381.921875 1055.109375 368.925781 1051.652344 355.820312 C 1048.195312 342.6875 1045.625 329.332031 1042.195312 316.199219 C 1040.148438 308.261719 1036.277344 278.402344 1022.730469 280.890625 C 1009.789062 283.238281 1012.722656 300.742188 1014.492188 309.921875 C 1018.308594 329.910156 1022.453125 349.792969 1025.109375 370.003906 C 1027.542969 388.445312 1030.445312 408.710938 1029.449219 427.347656 C 1029.007812 435.671875 1025.714844 442.332031 1020.710938 448.886719 C 1009.625 460.167969 1007.6875 451.015625 1001.386719 442.363281 C 995.136719 432.710938 985.433594 419.164062 978.824219 412.941406 C 959.691406 395.773438 928.527344 396.269531 933.617188 412.277344 C 934.945312 416.507812 937.792969 420.1875 940.199219 423.835938 C 946.140625 432.933594 952.445312 441.699219 958.527344 450.683594 C 970.140625 467.855469 982.804688 484.25 994.554688 501.308594 C 1004.703125 514.386719 1014.160156 527.605469 1024.03125 540.792969 C 1025.773438 543.144531 1027.125 545.992188 1028.785156 548.535156 C 1030.777344 551.605469 1033.761719 553.789062 1035.976562 556.71875 C 1043.441406 565.980469 1044.601562 578.230469 1045.816406 589.59375 C 1048.859375 618.101562 1048.859375 664.578125 1048.554688 693.195312 Z M 1140.128906 693.195312 " fill-opacity="1" fill-rule="nonzero"/></g><path fill="#5271ff" d="M 1159.457031 363.203125 C 1163.4375 350.425781 1167.777344 337.738281 1171.152344 324.769531 C 1171.179688 324.714844 1171.179688 324.660156 1171.207031 324.601562 C 1168.195312 320.789062 1165.261719 317.414062 1162.746094 315.0625 C 1158.765625 311.46875 1154.257812 308.648438 1149.640625 306.519531 C 1149.199219 307.433594 1148.785156 308.316406 1148.425781 309.175781 C 1144.746094 317.46875 1142.09375 326.152344 1138.800781 334.585938 C 1137.585938 337.707031 1136.257812 340.804688 1134.902344 343.875 C 1137.226562 347.21875 1139.523438 350.566406 1141.816406 353.9375 C 1146.488281 360.851562 1151.300781 367.625 1156.195312 374.371094 C 1157.21875 370.640625 1158.296875 366.90625 1159.457031 363.203125 Z M 1159.457031 363.203125 " fill-opacity="1" fill-rule="nonzero"/><path fill="#5271ff" d="M 1215.804688 357.503906 C 1210.828125 355.347656 1205.492188 359.414062 1201.734375 362.289062 C 1195.34375 367.183594 1190.367188 373.238281 1185.199219 379.320312 C 1180.636719 384.683594 1175.992188 389.964844 1171.234375 395.164062 C 1173.835938 398.785156 1176.40625 402.4375 1178.921875 406.113281 C 1181.992188 410.066406 1185.003906 414.046875 1187.992188 418.058594 C 1189.179688 416.480469 1190.367188 414.90625 1191.613281 413.246094 C 1198.554688 404.039062 1205.355469 394.667969 1211.328125 384.796875 C 1214.394531 379.734375 1217.492188 374.398438 1219.207031 368.703125 C 1220.480469 364.472656 1220.453125 359.523438 1215.804688 357.503906 Z M 1215.804688 357.503906 " fill-opacity="1" fill-rule="nonzero"/><path fill="#38b6ff" d="M 965.441406 404.34375 C 948.078125 396.65625 929.609375 399.644531 933.617188 412.25 C 934.945312 416.480469 937.792969 420.160156 940.199219 423.808594 C 941.855469 426.351562 943.570312 428.867188 945.285156 431.386719 C 951.503906 422.925781 957.753906 414.492188 964.253906 406.113281 C 964.613281 405.53125 965.027344 404.925781 965.441406 404.34375 Z M 965.441406 404.34375 " fill-opacity="1" fill-rule="nonzero"/><path fill="#38b6ff" d="M 1014.464844 309.921875 C 1015.707031 316.390625 1016.980469 322.859375 1018.222656 329.332031 C 1018.886719 328.308594 1019.578125 327.3125 1020.242188 326.289062 C 1022.703125 322.5 1025.632812 318.714844 1027.015625 314.371094 C 1029.617188 306.160156 1022.980469 301.929688 1013.21875 301.902344 C 1013.523438 304.832031 1014.046875 307.625 1014.464844 309.921875 Z M 1014.464844 309.921875 " fill-opacity="1" fill-rule="nonzero"/><g clip-path="url(#2f7483c7f7)"><path fill="#38b6ff" d="M 771.648438 287.054688 C 766.585938 284.84375 761.167969 288.992188 757.324219 291.921875 C 750.828125 296.898438 745.765625 303.0625 740.511719 309.257812 C 734.679688 316.140625 728.679688 322.890625 722.515625 329.46875 C 718.558594 333.699219 714.523438 337.875 710.183594 341.71875 C 708.441406 343.265625 706.285156 345.007812 704.15625 345.949219 C 699.066406 348.1875 703.710938 332.757812 704.183594 330.878906 C 707.363281 318.105469 710.402344 305.414062 714.328125 292.832031 C 718.394531 279.839844 722.789062 266.925781 726.21875 253.765625 C 729.289062 241.960938 729.894531 233.46875 729.425781 230.707031 C 728.402344 224.789062 722.957031 221.304688 716.789062 222.6875 C 709.765625 224.234375 705.757812 231.949219 703.105469 237.921875 C 699.34375 246.355469 696.6875 255.175781 693.316406 263.773438 C 688.753906 275.414062 683.003906 286.585938 678.414062 298.226562 C 674.15625 308.953125 669.84375 319.820312 665.167969 330.382812 C 660.664062 340.527344 661.851562 324.546875 662.101562 321.644531 C 662.957031 312.105469 663.621094 302.566406 664.117188 293 C 665.5 269.71875 667.742188 246.355469 667.492188 223.019531 C 667.382812 213.203125 670.035156 188.539062 654.550781 188.152344 C 643.628906 187.875 642.304688 203.054688 641.003906 210.851562 C 638.433594 226.308594 637.132812 241.929688 634.921875 257.441406 C 632.046875 277.683594 625.933594 311.523438 624.855469 316.777344 C 623.945312 321.175781 619.714844 333.699219 616.78125 324.988281 C 612.386719 311.910156 608.265625 298.722656 604.753906 285.367188 C 601.214844 272.015625 598.617188 258.4375 595.160156 245.082031 C 593.058594 237.039062 589.132812 206.652344 575.363281 209.167969 C 562.203125 211.574219 565.1875 229.351562 566.984375 238.695312 C 570.886719 259.019531 575.058594 279.230469 577.796875 299.773438 C 580.285156 318.519531 583.214844 339.148438 582.222656 358.085938 C 581.777344 366.546875 578.40625 373.347656 573.34375 379.984375 C 562.066406 391.460938 560.101562 382.167969 553.6875 373.347656 C 547.328125 363.535156 537.457031 349.765625 530.765625 343.460938 C 511.328125 325.984375 479.640625 326.511719 484.785156 342.769531 C 486.140625 347.054688 489.042969 350.785156 491.476562 354.519531 C 497.503906 363.753906 503.945312 372.65625 510.113281 381.808594 C 521.917969 399.257812 534.773438 415.929688 546.746094 433.292969 C 557.058594 446.59375 566.683594 460.03125 576.71875 473.4375 C 578.488281 475.816406 579.84375 478.71875 581.53125 481.320312 C 583.574219 484.445312 586.589844 486.683594 588.828125 489.640625 C 596.40625 499.042969 597.59375 511.511719 598.839844 523.070312 C 601.464844 547.621094 601.851562 646.027344 601.714844 693.222656 L 694.394531 693.222656 C 693.898438 655.648438 693.398438 584.007812 692.515625 567.667969 C 691.546875 550.054688 690.992188 532.441406 690.300781 514.832031 C 691.019531 484.113281 695.640625 489.0625 701.667969 470.480469 C 703.960938 464.289062 704.875 457.707031 706.53125 451.292969 C 708.882812 441.753906 715.546875 401.632812 718.3125 392.207031 C 729.207031 366.878906 736.808594 357.449219 747.121094 343.765625 C 754.171875 334.390625 761.085938 324.878906 767.140625 314.84375 C 770.238281 309.699219 773.417969 304.28125 775.160156 298.5 C 776.429688 294.160156 776.375 289.101562 771.648438 287.054688 Z M 771.648438 287.054688 " fill-opacity="1" fill-rule="nonzero"/></g><path fill="#5271ff" d="M 775.128906 298.445312 C 776.429688 294.132812 776.375 289.101562 771.648438 287.054688 C 766.585938 284.84375 761.167969 288.992188 757.324219 291.921875 C 754.421875 294.132812 751.792969 296.621094 749.332031 299.222656 C 753.121094 304.695312 757.074219 310.058594 761.085938 315.367188 C 762.136719 316.777344 763.1875 318.160156 764.179688 319.488281 C 765.175781 317.9375 766.144531 316.363281 767.113281 314.789062 C 770.210938 309.644531 773.390625 304.253906 775.128906 298.445312 Z M 775.128906 298.445312 " fill-opacity="1" fill-rule="nonzero"/><g clip-path="url(#49fde61822)"><path fill="#0cc0df" d="M 452.710938 693.195312 C 452.074219 673.316406 451.605469 653.4375 450.527344 633.585938 C 449.585938 616.304688 449.035156 599.023438 448.371094 581.714844 C 449.089844 551.578125 453.625 556.414062 459.539062 538.195312 C 461.808594 532.113281 462.691406 525.667969 464.324219 519.363281 C 466.648438 510.019531 473.171875 470.648438 475.882812 461.355469 C 486.582031 436.5 494.046875 427.238281 504.140625 413.828125 C 511.050781 404.648438 517.851562 395.273438 523.796875 385.429688 C 526.839844 380.371094 529.964844 375.0625 531.679688 369.394531 C 532.949219 365.164062 532.894531 360.214844 528.277344 358.222656 C 523.300781 356.066406 517.992188 360.132812 514.230469 363.007812 C 507.84375 367.875 502.894531 373.929688 497.722656 380.011719 C 491.972656 386.757812 486.113281 393.394531 480.054688 399.863281 C 476.15625 404.011719 472.203125 408.132812 467.972656 411.890625 C 466.257812 413.414062 464.160156 415.128906 462.058594 416.039062 C 457.050781 418.222656 461.613281 403.097656 462.085938 401.246094 C 465.207031 388.722656 468.195312 376.253906 472.039062 363.921875 C 476.019531 351.175781 480.332031 338.511719 483.707031 325.570312 C 486.71875 313.984375 487.328125 305.636719 486.859375 302.925781 C 485.835938 297.121094 480.5 293.691406 474.445312 295.046875 C 467.558594 296.566406 463.632812 304.140625 461.035156 310.003906 C 457.355469 318.269531 454.730469 326.953125 451.441406 335.359375 C 446.960938 346.777344 441.320312 357.753906 436.8125 369.171875 C 432.636719 379.707031 428.40625 390.382812 423.816406 400.722656 C 419.394531 410.675781 420.554688 394.96875 420.804688 392.152344 C 421.660156 382.777344 422.296875 373.402344 422.765625 364.03125 C 424.148438 341.164062 426.332031 318.269531 426.085938 295.351562 C 425.972656 285.726562 428.574219 261.535156 413.367188 261.148438 C 402.636719 260.871094 401.339844 275.773438 400.066406 283.433594 C 397.550781 298.613281 396.277344 313.957031 394.121094 329.164062 C 391.273438 349.046875 385.328125 382.253906 384.25 387.394531 C 383.367188 391.707031 379.191406 403.984375 376.316406 395.46875 C 372.003906 382.640625 367.964844 369.671875 364.511719 356.59375 C 361.054688 343.488281 358.480469 330.160156 355.082031 317.054688 C 353.035156 309.148438 349.164062 279.339844 335.644531 281.800781 C 322.730469 284.152344 325.664062 301.625 327.40625 310.777344 C 331.21875 330.742188 335.339844 350.566406 337.996094 370.722656 C 340.425781 389.136719 343.304688 409.375 342.335938 427.957031 C 341.894531 436.25 338.601562 442.914062 333.597656 449.441406 C 322.539062 460.691406 320.601562 451.570312 314.328125 442.941406 C 308.105469 433.292969 298.398438 419.800781 291.820312 413.605469 C 272.742188 396.464844 241.636719 396.960938 246.695312 412.941406 C 248.023438 417.144531 250.871094 420.824219 253.25 424.472656 C 259.164062 433.542969 265.46875 442.277344 271.554688 451.265625 C 283.136719 468.40625 295.773438 484.75 307.496094 501.78125 C 317.617188 514.832031 327.074219 528.019531 336.886719 541.179688 C 338.628906 543.503906 339.957031 546.378906 341.617188 548.921875 C 343.605469 551.992188 346.59375 554.175781 348.777344 557.105469 C 356.214844 566.339844 357.375 578.5625 358.59375 589.898438 C 361.632812 618.351562 361.605469 664.71875 361.300781 693.28125 L 452.710938 693.28125 Z M 452.710938 693.195312 " fill-opacity="1" fill-rule="nonzero"/></g><path fill="#5271ff" d="M 528.222656 358.195312 C 523.246094 356.039062 517.9375 360.105469 514.175781 362.980469 C 510.359375 365.910156 507.042969 369.257812 503.890625 372.769531 C 505.964844 375.753906 508.039062 378.742188 510.054688 381.753906 C 512.792969 385.820312 515.585938 389.828125 518.433594 393.808594 C 520.257812 391.042969 522.054688 388.25 523.769531 385.429688 C 526.8125 380.371094 529.9375 375.0625 531.648438 369.394531 C 532.894531 365.164062 532.839844 360.214844 528.222656 358.195312 Z M 528.222656 358.195312 " fill-opacity="1" fill-rule="nonzero"/><path fill="#5271ff" d="M 264.585938 401.054688 C 252.75 399.589844 243.710938 403.652344 246.613281 412.832031 C 247.441406 415.457031 248.851562 417.863281 250.375 420.1875 C 253.886719 415.488281 257.425781 410.785156 261.046875 406.113281 C 262.234375 404.425781 263.394531 402.738281 264.585938 401.054688 Z M 264.585938 401.054688 " fill-opacity="1" fill-rule="nonzero"/></svg>