<svg xmlns="http://www.w3.org/2000/svg" xmlns:xlink="http://www.w3.org/1999/xlink" width="500" zoomAndPan="magnify" viewBox="0 0 375 374.999991" height="500" preserveAspectRatio="xMidYMid meet" version="1.0"><defs><clipPath id="ee4a67c888"><path d="M 12.460938 12.460938 L 362.710938 12.460938 L 362.710938 362.710938 L 12.460938 362.710938 Z M 12.460938 12.460938 " clip-rule="nonzero"/></clipPath></defs><g clip-path="url(#ee4a67c888)"><path fill="#000000" d="M 187.585938 12.460938 C 184.722656 12.460938 181.855469 12.53125 178.992188 12.671875 C 176.132812 12.8125 173.273438 13.023438 170.421875 13.304688 C 167.570312 13.585938 164.726562 13.9375 161.890625 14.355469 C 159.054688 14.777344 156.234375 15.269531 153.421875 15.828125 C 150.609375 16.386719 147.816406 17.015625 145.035156 17.710938 C 142.253906 18.40625 139.492188 19.171875 136.75 20.003906 C 134.007812 20.835938 131.289062 21.734375 128.589844 22.699219 C 125.890625 23.664062 123.21875 24.695312 120.570312 25.792969 C 117.921875 26.890625 115.300781 28.050781 112.710938 29.277344 C 110.121094 30.5 107.5625 31.789062 105.035156 33.140625 C 102.507812 34.492188 100.011719 35.902344 97.554688 37.378906 C 95.097656 38.851562 92.675781 40.382812 90.292969 41.976562 C 87.910156 43.566406 85.566406 45.21875 83.265625 46.925781 C 80.964844 48.632812 78.703125 50.394531 76.488281 52.214844 C 74.273438 54.03125 72.105469 55.902344 69.980469 57.828125 C 67.855469 59.753906 65.78125 61.726562 63.753906 63.753906 C 61.726562 65.78125 59.753906 67.855469 57.828125 69.980469 C 55.902344 72.105469 54.03125 74.273438 52.214844 76.488281 C 50.394531 78.703125 48.632812 80.964844 46.925781 83.265625 C 45.21875 85.566406 43.566406 87.910156 41.976562 90.292969 C 40.382812 92.675781 38.851562 95.097656 37.378906 97.554688 C 35.902344 100.011719 34.492188 102.507812 33.140625 105.035156 C 31.789062 107.5625 30.5 110.121094 29.277344 112.710938 C 28.050781 115.300781 26.890625 117.921875 25.792969 120.570312 C 24.695312 123.21875 23.664062 125.890625 22.699219 128.589844 C 21.734375 131.289062 20.835938 134.007812 20.003906 136.75 C 19.171875 139.492188 18.40625 142.253906 17.710938 145.035156 C 17.015625 147.816406 16.386719 150.609375 15.828125 153.421875 C 15.269531 156.234375 14.777344 159.054688 14.355469 161.890625 C 13.9375 164.726562 13.585938 167.570312 13.304688 170.421875 C 13.023438 173.273438 12.8125 176.132812 12.671875 178.992188 C 12.53125 181.855469 12.460938 184.722656 12.460938 187.585938 C 12.460938 190.453125 12.53125 193.316406 12.671875 196.179688 C 12.8125 199.042969 13.023438 201.898438 13.304688 204.753906 C 13.585938 207.605469 13.9375 210.449219 14.355469 213.28125 C 14.777344 216.117188 15.269531 218.941406 15.828125 221.753906 C 16.386719 224.5625 17.015625 227.359375 17.710938 230.140625 C 18.40625 232.917969 19.171875 235.679688 20.003906 238.421875 C 20.835938 241.164062 21.734375 243.886719 22.699219 246.585938 C 23.664062 249.285156 24.695312 251.957031 25.792969 254.605469 C 26.890625 257.253906 28.050781 259.871094 29.277344 262.460938 C 30.5 265.054688 31.789062 267.613281 33.140625 270.140625 C 34.492188 272.667969 35.902344 275.160156 37.378906 277.617188 C 38.851562 280.078125 40.382812 282.5 41.976562 284.882812 C 43.566406 287.265625 45.21875 289.605469 46.925781 291.910156 C 48.632812 294.210938 50.394531 296.46875 52.214844 298.683594 C 54.03125 300.902344 55.902344 303.070312 57.828125 305.195312 C 59.753906 307.316406 61.726562 309.390625 63.753906 311.417969 C 65.78125 313.445312 67.855469 315.421875 69.980469 317.347656 C 72.105469 319.269531 74.273438 321.140625 76.488281 322.960938 C 78.703125 324.777344 80.964844 326.542969 83.265625 328.25 C 85.566406 329.957031 87.910156 331.605469 90.292969 333.199219 C 92.675781 334.789062 95.097656 336.324219 97.554688 337.796875 C 100.011719 339.269531 102.507812 340.683594 105.035156 342.035156 C 107.5625 343.382812 110.121094 344.671875 112.710938 345.898438 C 115.300781 347.125 117.921875 348.285156 120.570312 349.382812 C 123.21875 350.476562 125.890625 351.507812 128.589844 352.476562 C 131.289062 353.441406 134.007812 354.339844 136.75 355.171875 C 139.492188 356.003906 142.253906 356.765625 145.035156 357.464844 C 147.816406 358.160156 150.609375 358.789062 153.421875 359.347656 C 156.234375 359.90625 159.054688 360.394531 161.890625 360.816406 C 164.726562 361.238281 167.570312 361.585938 170.421875 361.867188 C 173.273438 362.148438 176.132812 362.359375 178.992188 362.5 C 181.855469 362.640625 184.722656 362.710938 187.585938 362.710938 C 190.453125 362.710938 193.316406 362.640625 196.179688 362.5 C 199.042969 362.359375 201.898438 362.148438 204.753906 361.867188 C 207.605469 361.585938 210.449219 361.238281 213.28125 360.816406 C 216.117188 360.394531 218.941406 359.90625 221.753906 359.347656 C 224.5625 358.789062 227.359375 358.160156 230.140625 357.464844 C 232.917969 356.765625 235.679688 356.003906 238.421875 355.171875 C 241.164062 354.339844 243.886719 353.441406 246.585938 352.476562 C 249.285156 351.507812 251.957031 350.476562 254.605469 349.382812 C 257.253906 348.285156 259.871094 347.125 262.460938 345.898438 C 265.054688 344.671875 267.613281 343.382812 270.140625 342.035156 C 272.667969 340.683594 275.160156 339.269531 277.617188 337.796875 C 280.078125 336.324219 282.5 334.789062 284.882812 333.199219 C 287.265625 331.605469 289.605469 329.957031 291.910156 328.25 C 294.210938 326.542969 296.46875 324.777344 298.683594 322.960938 C 300.902344 321.140625 303.070312 319.269531 305.195312 317.347656 C 307.316406 315.421875 309.390625 313.445312 311.417969 311.417969 C 313.445312 309.390625 315.421875 307.316406 317.347656 305.195312 C 319.269531 303.070312 321.140625 300.902344 322.960938 298.683594 C 324.777344 296.46875 326.542969 294.210938 328.25 291.910156 C 329.957031 289.605469 331.605469 287.265625 333.199219 284.882812 C 334.789062 282.5 336.324219 280.078125 337.796875 277.617188 C 339.269531 275.160156 340.683594 272.667969 342.035156 270.140625 C 343.382812 267.613281 344.671875 265.054688 345.898438 262.460938 C 347.125 259.871094 348.285156 257.253906 349.382812 254.605469 C 350.476562 251.957031 351.507812 249.285156 352.476562 246.585938 C 353.441406 243.886719 354.339844 241.164062 355.171875 238.421875 C 356.003906 235.679688 356.765625 232.917969 357.464844 230.140625 C 358.160156 227.359375 358.789062 224.5625 359.347656 221.753906 C 359.90625 218.941406 360.394531 216.117188 360.816406 213.28125 C 361.238281 210.449219 361.585938 207.605469 361.867188 204.753906 C 362.148438 201.898438 362.359375 199.042969 362.5 196.179688 C 362.640625 193.316406 362.710938 190.453125 362.710938 187.585938 C 362.710938 184.722656 362.640625 181.855469 362.5 178.996094 C 362.359375 176.132812 362.148438 173.273438 361.867188 170.421875 C 361.585938 167.570312 361.234375 164.726562 360.8125 161.890625 C 360.394531 159.058594 359.902344 156.234375 359.34375 153.421875 C 358.785156 150.613281 358.15625 147.816406 357.460938 145.035156 C 356.761719 142.257812 356 139.496094 355.167969 136.753906 C 354.332031 134.011719 353.433594 131.289062 352.46875 128.59375 C 351.503906 125.894531 350.472656 123.21875 349.375 120.574219 C 348.277344 117.925781 347.117188 115.304688 345.890625 112.714844 C 344.667969 110.125 343.378906 107.566406 342.027344 105.039062 C 340.675781 102.511719 339.261719 100.015625 337.789062 97.558594 C 336.316406 95.101562 334.785156 92.679688 333.191406 90.296875 C 331.597656 87.914062 329.949219 85.574219 328.242188 83.269531 C 326.535156 80.96875 324.773438 78.710938 322.953125 76.496094 C 321.136719 74.277344 319.265625 72.109375 317.339844 69.984375 C 315.414062 67.863281 313.4375 65.789062 311.414062 63.761719 C 309.386719 61.734375 307.3125 59.757812 305.1875 57.835938 C 303.0625 55.910156 300.894531 54.039062 298.679688 52.21875 C 296.464844 50.402344 294.203125 48.640625 291.902344 46.933594 C 289.601562 45.226562 287.257812 43.574219 284.875 41.984375 C 282.492188 40.390625 280.074219 38.855469 277.613281 37.382812 C 275.15625 35.910156 272.664062 34.496094 270.136719 33.148438 C 267.609375 31.796875 265.050781 30.507812 262.457031 29.28125 C 259.867188 28.054688 257.25 26.894531 254.601562 25.796875 C 251.953125 24.703125 249.28125 23.671875 246.582031 22.703125 C 243.882812 21.738281 241.164062 20.839844 238.421875 20.007812 C 235.679688 19.175781 232.917969 18.410156 230.136719 17.714844 C 227.355469 17.019531 224.5625 16.390625 221.75 15.832031 C 218.941406 15.269531 216.117188 14.78125 213.28125 14.359375 C 210.445312 13.9375 207.605469 13.589844 204.75 13.308594 C 201.898438 13.027344 199.042969 12.816406 196.179688 12.675781 C 193.316406 12.53125 190.453125 12.460938 187.585938 12.460938 Z M 296.546875 159.730469 C 296.242188 160.722656 295.785156 161.640625 295.183594 162.484375 C 294.578125 163.328125 293.859375 164.054688 293.019531 164.667969 C 292.183594 165.277344 291.269531 165.742188 290.28125 166.058594 C 289.292969 166.375 288.28125 166.527344 287.242188 166.515625 L 277.503906 166.515625 L 277.503906 264.96875 C 277.5 265.945312 277.453125 266.921875 277.355469 267.894531 C 277.257812 268.863281 277.113281 269.828125 276.921875 270.785156 C 276.734375 271.746094 276.496094 272.691406 276.210938 273.625 C 275.925781 274.558594 275.597656 275.476562 275.222656 276.378906 C 274.847656 277.28125 274.429688 278.164062 273.96875 279.023438 C 273.511719 279.882812 273.007812 280.71875 272.464844 281.53125 C 271.921875 282.34375 271.339844 283.128906 270.722656 283.882812 C 270.101562 284.636719 269.445312 285.359375 268.757812 286.050781 C 268.066406 286.742188 267.34375 287.394531 266.589844 288.015625 C 265.832031 288.636719 265.050781 289.214844 264.238281 289.757812 C 263.425781 290.300781 262.589844 290.804688 261.730469 291.265625 C 260.867188 291.726562 259.988281 292.140625 259.085938 292.515625 C 258.183594 292.890625 257.265625 293.21875 256.332031 293.503906 C 255.398438 293.789062 254.449219 294.027344 253.492188 294.21875 C 252.535156 294.410156 251.570312 294.550781 250.597656 294.648438 C 249.628906 294.746094 248.652344 294.796875 247.675781 294.796875 L 218.289062 294.796875 C 217.910156 294.792969 217.535156 294.753906 217.164062 294.675781 C 216.792969 294.601562 216.433594 294.488281 216.085938 294.339844 C 215.734375 294.195312 215.402344 294.015625 215.089844 293.800781 C 214.777344 293.589844 214.484375 293.347656 214.21875 293.082031 C 213.953125 292.8125 213.714844 292.519531 213.503906 292.203125 C 213.296875 291.886719 213.121094 291.554688 212.976562 291.203125 C 212.832031 290.851562 212.722656 290.492188 212.652344 290.121094 C 212.578125 289.75 212.542969 289.375 212.542969 288.996094 L 212.542969 237.496094 C 212.539062 236.617188 212.453125 235.746094 212.28125 234.882812 C 212.109375 234.019531 211.851562 233.183594 211.515625 232.371094 C 211.179688 231.558594 210.765625 230.785156 210.277344 230.054688 C 209.785156 229.320312 209.230469 228.644531 208.609375 228.023438 C 207.988281 227.402344 207.308594 226.84375 206.578125 226.355469 C 205.847656 225.867188 205.074219 225.453125 204.261719 225.117188 C 203.449219 224.777344 202.609375 224.523438 201.75 224.351562 C 200.886719 224.179688 200.015625 224.089844 199.132812 224.089844 L 176.039062 224.089844 C 175.160156 224.089844 174.289062 224.179688 173.425781 224.351562 C 172.5625 224.523438 171.726562 224.777344 170.910156 225.117188 C 170.097656 225.453125 169.328125 225.867188 168.59375 226.355469 C 167.863281 226.84375 167.1875 227.402344 166.566406 228.023438 C 165.941406 228.644531 165.386719 229.320312 164.898438 230.054688 C 164.410156 230.785156 163.996094 231.558594 163.65625 232.371094 C 163.320312 233.183594 163.066406 234.019531 162.894531 234.882812 C 162.71875 235.746094 162.632812 236.617188 162.632812 237.496094 L 162.632812 288.996094 C 162.632812 289.375 162.597656 289.75 162.523438 290.121094 C 162.449219 290.492188 162.339844 290.851562 162.199219 291.203125 C 162.054688 291.554688 161.878906 291.886719 161.667969 292.203125 C 161.457031 292.519531 161.222656 292.8125 160.953125 293.082031 C 160.6875 293.347656 160.398438 293.589844 160.082031 293.800781 C 159.769531 294.015625 159.4375 294.195312 159.089844 294.339844 C 158.742188 294.488281 158.378906 294.601562 158.011719 294.675781 C 157.640625 294.753906 157.265625 294.792969 156.886719 294.796875 L 127.496094 294.796875 C 126.519531 294.796875 125.546875 294.746094 124.574219 294.648438 C 123.601562 294.550781 122.636719 294.410156 121.679688 294.21875 C 120.722656 294.027344 119.777344 293.789062 118.84375 293.503906 C 117.910156 293.21875 116.992188 292.890625 116.089844 292.515625 C 115.1875 292.140625 114.304688 291.726562 113.445312 291.265625 C 112.582031 290.804688 111.746094 290.300781 110.933594 289.757812 C 110.121094 289.214844 109.339844 288.636719 108.585938 288.015625 C 107.832031 287.394531 107.109375 286.742188 106.417969 286.050781 C 105.726562 285.359375 105.070312 284.636719 104.453125 283.882812 C 103.832031 283.128906 103.25 282.34375 102.707031 281.53125 C 102.164062 280.71875 101.664062 279.882812 101.203125 279.023438 C 100.742188 278.164062 100.324219 277.28125 99.949219 276.378906 C 99.578125 275.476562 99.246094 274.558594 98.964844 273.625 C 98.679688 272.691406 98.441406 271.746094 98.25 270.785156 C 98.058594 269.828125 97.914062 268.863281 97.816406 267.890625 C 97.722656 266.921875 97.671875 265.945312 97.671875 264.96875 L 97.671875 166.515625 L 87.929688 166.515625 C 86.898438 166.519531 85.890625 166.359375 84.90625 166.042969 C 83.925781 165.722656 83.015625 165.257812 82.179688 164.652344 C 81.34375 164.042969 80.625 163.320312 80.019531 162.484375 C 79.410156 161.648438 78.949219 160.738281 78.632812 159.753906 C 78.316406 158.773438 78.160156 157.765625 78.164062 156.730469 C 78.167969 155.699219 78.332031 154.691406 78.65625 153.710938 C 78.980469 152.730469 79.449219 151.824219 80.058594 150.992188 C 80.671875 150.160156 81.398438 149.441406 82.238281 148.839844 L 170.292969 85.960938 C 171.546875 85.0625 172.863281 84.269531 174.238281 83.578125 C 175.617188 82.886719 177.039062 82.308594 178.507812 81.835938 C 179.972656 81.367188 181.46875 81.011719 182.992188 80.777344 C 184.515625 80.539062 186.046875 80.417969 187.585938 80.417969 C 189.128906 80.417969 190.660156 80.539062 192.183594 80.777344 C 193.703125 81.011719 195.199219 81.367188 196.667969 81.835938 C 198.132812 82.308594 199.554688 82.886719 200.933594 83.578125 C 202.3125 84.269531 203.625 85.0625 204.878906 85.960938 L 292.933594 148.839844 C 293.777344 149.4375 294.503906 150.148438 295.121094 150.980469 C 295.734375 151.808594 296.203125 152.714844 296.527344 153.691406 C 296.851562 154.671875 297.015625 155.679688 297.019531 156.710938 C 297.023438 157.742188 296.867188 158.75 296.546875 159.730469 Z M 296.546875 159.730469 " fill-opacity="1" fill-rule="nonzero"/></g></svg>